<?xml version="1.0" standalone="no"?>
<!DOCTYPE svg PUBLIC "-//W3C//DTD SVG 20010904//EN"
 "http://www.w3.org/TR/2001/REC-SVG-20010904/DTD/svg10.dtd">
<svg version="1.0" xmlns="http://www.w3.org/2000/svg"
 width="48.000000pt" height="48.000000pt" viewBox="0 0 48.000000 48.000000"
 preserveAspectRatio="xMidYMid meet">
<g transform="translate(0.000000,48.000000) scale(0.100000,-0.100000)"
fill="#000000" stroke="none">
<path d="M166 361 c-90 -59 -87 -184 6 -241 60 -37 130 -21 182 40 22 27 24
33 12 46 -8 8 -22 14 -30 14 -11 0 -16 9 -16 30 0 17 -4 30 -10 30 -5 0 -10
-5 -10 -12 0 -9 -3 -9 -12 0 -14 14 -77 16 -79 2 -2 -14 -5 -22 -14 -43 -4
-10 -5 -21 -1 -24 9 -9 15 0 18 28 3 27 15 39 41 39 11 0 15 -4 11 -12 -4 -7
-3 -8 4 -4 7 4 12 2 12 -4 0 -8 -9 -10 -25 -6 -22 6 -25 3 -25 -19 0 -14 5
-25 10 -25 6 0 10 7 10 15 0 8 9 15 20 15 11 0 20 6 21 13 1 6 4 1 8 -13 5
-18 15 -26 34 -28 15 -2 27 -7 27 -11 0 -15 -56 -61 -87 -72 -71 -24 -151 35
-161 117 -6 52 12 56 23 4 8 -37 22 -46 30 -20 4 11 11 18 16 15 5 -4 9 3 9
14 0 28 -19 27 -29 -1 l-8 -23 -8 25 c-4 14 -12 28 -18 32 -17 10 21 58 58 74
19 8 47 14 62 14 34 0 88 -31 103 -60 6 -12 14 -19 17 -17 8 9 -23 48 -54 68
-37 25 -109 25 -147 0z"/>
</g>
</svg>
